<svg width="333" height="334" viewBox="0 0 333 334" fill="none" xmlns="http://www.w3.org/2000/svg">
<circle cx="166" cy="168" r="161" fill="white"/>
<path d="M147.202 304.476L149.838 304.66C149.941 305.429 150.167 306.114 150.516 306.715C150.859 307.316 151.293 307.831 151.818 308.259C152.336 308.694 152.921 309.034 153.573 309.279C154.225 309.524 154.913 309.671 155.635 309.722C156.953 309.814 158.17 309.565 159.286 308.973C160.396 308.382 161.311 307.46 162.032 306.207C162.746 304.954 163.169 303.385 163.301 301.501C163.433 299.616 163.232 298.004 162.7 296.664C162.16 295.323 161.382 294.283 160.366 293.542C159.342 292.801 158.172 292.385 156.854 292.293C156.131 292.242 155.43 292.293 154.75 292.445C154.07 292.597 153.444 292.848 152.871 293.2C152.291 293.558 151.789 294.01 151.367 294.558C150.936 295.111 150.617 295.758 150.409 296.498L147.773 296.314C148.049 295.216 148.48 294.245 149.066 293.404C149.651 292.562 150.356 291.86 151.178 291.298C152 290.743 152.907 290.34 153.9 290.089C154.886 289.838 155.928 289.75 157.026 289.827C158.883 289.957 160.502 290.526 161.884 291.534C163.266 292.542 164.313 293.911 165.025 295.641C165.737 297.371 166.012 299.384 165.852 301.679C165.691 303.975 165.138 305.929 164.192 307.544C163.246 309.158 162.019 310.368 160.51 311.173C159.002 311.979 157.319 312.317 155.463 312.187C154.365 312.111 153.345 311.879 152.404 311.493C151.455 311.106 150.613 310.577 149.877 309.907C149.14 309.243 148.54 308.453 148.077 307.538C147.614 306.63 147.322 305.609 147.202 304.476Z" fill="black"/>
<path d="M148.026 289.375L143.49 310.716L140.906 310.167L142.926 300.663L131.546 298.245L129.526 307.748L126.942 307.199L131.478 285.858L134.063 286.407L132.034 295.952L143.413 298.371L145.442 288.826L148.026 289.375Z" fill="black"/>
<path d="M129.386 285.024L131.989 285.971L116.999 303.733L114.436 302.801L114.37 279.558L116.973 280.505L116.818 299.994L116.978 300.053L129.386 285.024ZM125.51 292.683L115.019 288.864L115.821 286.662L126.312 290.48L125.51 292.683Z" fill="black"/>
<path d="M114.199 279.244L103.956 298.509L97.4468 295.048C95.9417 294.247 94.8431 293.333 94.1508 292.306C93.4551 291.284 93.112 290.205 93.1214 289.068C93.1309 287.931 93.4373 286.794 94.0408 285.659C94.6444 284.524 95.4115 283.641 96.3424 283.01C97.2732 282.379 98.3518 282.067 99.578 282.076C100.801 282.091 102.159 282.495 103.651 283.288L108.919 286.089L107.798 288.196L102.606 285.435C101.577 284.889 100.67 284.599 99.8825 284.567C99.0891 284.531 98.4046 284.714 97.829 285.116C97.2438 285.52 96.7461 286.108 96.336 286.88C95.9259 287.651 95.7117 288.402 95.6934 289.132C95.6751 289.862 95.8993 290.553 96.3659 291.203C96.8292 291.86 97.5814 292.465 98.6223 293.018L102.724 295.199L111.866 278.004L114.199 279.244ZM100.53 283.077L100.39 271.902L103.099 273.343L103.164 284.477L100.53 283.077Z" fill="black"/>
<path d="M88.5898 287.394L87.2122 289.29L73.9737 279.672L75.3514 277.776L80.9019 281.809L92.3486 266.053L94.4861 267.606L83.0393 283.361L88.5898 287.394Z" fill="black"/>
<path d="M84.749 260.131L69.5928 275.826L60.1208 266.679L61.7489 264.993L69.3204 272.305L74.4415 267.002L67.3605 260.164L68.9886 258.478L76.0696 265.316L81.2203 259.982L73.5263 252.552L75.1544 250.866L84.749 260.131Z" fill="black"/>
<path d="M72.932 248.391L55.739 261.824L51.2002 256.014C50.1508 254.671 49.5189 253.389 49.3044 252.169C49.0844 250.953 49.2099 249.827 49.6811 248.792C50.1522 247.757 50.8943 246.844 51.9073 246.053C52.9203 245.261 53.9804 244.766 55.0875 244.568C56.1946 244.37 57.3065 244.525 58.4232 245.031C59.5344 245.542 60.6103 246.463 61.651 247.795L65.324 252.497L63.4435 253.966L59.823 249.332C59.1059 248.414 58.3944 247.78 57.6885 247.43C56.9782 247.075 56.2784 246.964 55.5891 247.097C54.8899 247.228 54.1961 247.563 53.5077 248.101C52.8193 248.639 52.3182 249.238 52.0045 249.897C51.6907 250.557 51.6147 251.279 51.7765 252.063C51.9327 252.851 52.3738 253.71 53.0996 254.639L55.9593 258.299L71.3054 246.309L72.932 248.391ZM58.8858 246.333L63.3035 236.067L65.1925 238.485L60.7223 248.683L58.8858 246.333Z" fill="black"/>
<path d="M62.1611 234.079L43.266 244.988L36.6822 233.584L38.712 232.413L43.9748 241.528L50.3592 237.842L45.4374 229.317L47.4671 228.145L52.389 236.67L58.8104 232.963L53.4624 223.7L55.4921 222.528L62.1611 234.079Z" fill="black"/>
<path d="M51.9602 214.394L54.4824 220.636L34.2529 228.81L31.619 222.29C30.8261 220.328 30.5527 218.485 30.7986 216.762C31.038 215.041 31.7613 213.504 32.9686 212.151C34.1694 210.8 35.8168 209.702 37.9109 208.856C40.0181 208.004 41.984 207.647 43.8084 207.783C45.6263 207.922 47.2335 208.544 48.6301 209.649C50.0201 210.758 51.1301 212.339 51.9602 214.394ZM51.3196 219.065L49.851 215.43C49.1752 213.757 48.2925 212.501 47.2028 211.662C46.1131 210.823 44.8633 210.375 43.4532 210.316C42.0431 210.258 40.515 210.561 38.8687 211.226C37.2356 211.886 35.9374 212.721 34.9742 213.73C34.0044 214.743 33.4176 215.907 33.2137 217.222C33.0033 218.541 33.2174 219.99 33.8559 221.57L35.4363 225.482L51.3196 219.065Z" fill="black"/>
<path d="M43.7635 185.965L22.0648 188.245L20.6884 175.15L23.0193 174.905L24.1195 185.373L31.4513 184.602L30.4224 174.812L32.7533 174.567L33.7822 184.357L41.1564 183.582L40.0383 172.945L42.3692 172.7L43.7635 185.965Z" fill="black"/>
<path d="M21.021 152.337L42.8259 153.099L42.7367 155.654L25.2015 166.938L25.1941 167.151L42.3143 167.749L42.2221 170.389L20.4172 169.628L20.5065 167.073L38.0857 155.747L38.0932 155.534L20.9303 154.935L21.021 152.337Z" fill="black"/>
<path d="M30.7641 135.67C30.017 135.777 29.3304 135.969 28.7042 136.248C28.0723 136.519 27.5114 136.878 27.0214 137.325C26.5327 137.766 26.1261 138.293 25.8016 138.906C25.477 139.52 25.2463 140.214 25.1094 140.991C24.885 142.264 25.0096 143.479 25.4833 144.637C25.957 145.796 26.7796 146.795 27.951 147.636C29.1225 148.478 30.6384 149.062 32.4989 149.39C34.3595 149.718 35.9846 149.684 37.3743 149.287C38.764 148.89 39.8814 148.218 40.7263 147.271C41.5712 146.324 42.1109 145.186 42.3452 143.857C42.5623 142.626 42.4911 141.495 42.1318 140.466C41.7667 139.428 41.1478 138.561 40.2751 137.867C39.3966 137.164 38.2999 136.696 36.985 136.464L37.2934 135.697L36.1539 142.159L33.8457 141.752L35.2887 133.569L37.5968 133.976C39.3664 134.288 40.8385 134.937 42.0133 135.923C43.1893 136.902 44.0209 138.116 44.5083 139.565C44.9898 141.006 45.0802 142.579 44.7792 144.286C44.4438 146.189 43.7014 147.781 42.552 149.064C41.4039 150.34 39.9336 151.235 38.1411 151.748C36.3499 152.254 34.3211 152.308 32.055 151.908C30.3553 151.609 28.8671 151.112 27.5904 150.418C26.3079 149.716 25.2615 148.861 24.4513 147.852C23.6411 146.844 23.0818 145.721 22.7734 144.484C22.4651 143.247 22.4324 141.94 22.6754 140.562C22.8752 139.429 23.2328 138.403 23.7482 137.484C24.2578 136.557 24.8917 135.764 25.6498 135.104C26.4022 134.436 27.2542 133.919 28.2058 133.553C29.1504 133.186 30.161 132.997 31.2377 132.985L30.7641 135.67Z" fill="black"/>
<path d="M28.1358 120.522L48.8861 127.264L48.0697 129.777L27.3194 123.035L28.1358 120.522Z" fill="black"/>
<path d="M39.4274 94.5569L59.0375 104.121L57.9166 106.419L37.3078 109.596L37.2144 109.787L52.6114 117.297L51.4532 119.672L31.8431 110.107L32.9639 107.809L53.6298 104.613L53.7232 104.422L38.2879 96.8932L39.4274 94.5569Z" fill="black"/>
<path d="M60.0401 102.805L41.952 90.6043L49.3152 79.6878L51.2583 80.9984L45.3725 89.7245L51.4843 93.847L56.9888 85.6862L58.9319 86.9968L53.4273 95.1576L59.5745 99.3039L65.5556 90.4365L67.4987 91.7471L60.0401 102.805Z" fill="black"/>
<path d="M69.9714 88.6606L53.7573 74.0614L62.5682 64.276L64.3099 65.8442L57.2669 73.6663L62.7455 78.5992L69.3323 71.2839L71.074 72.8521L64.4872 80.1675L69.9975 85.1289L77.1545 77.1802L78.8963 78.7485L69.9714 88.6606Z" fill="black"/>
<path d="M81.292 76.4411L67.2675 59.7274L72.9149 54.9886C74.2207 53.893 75.4797 53.2167 76.6919 52.9598C77.8995 52.6974 79.0288 52.7836 80.0796 53.2184C81.1305 53.6531 82.0691 54.3629 82.8954 55.3476C83.7217 56.3324 84.2532 57.3745 84.4897 58.474C84.7262 59.5736 84.6109 60.6902 84.1437 61.8239C83.6719 62.9522 82.7886 64.0596 81.4937 65.1462L76.9236 68.981L75.3896 67.1529L79.8945 63.3729C80.7868 62.6242 81.3954 61.891 81.7203 61.1733C82.0507 60.4511 82.1374 59.7479 81.9805 59.0636C81.8245 58.3694 81.4657 57.6877 80.9041 57.0185C80.3426 56.3493 79.7267 55.8694 79.0564 55.5789C78.3862 55.2884 77.6622 55.2376 76.8844 55.4267C76.102 55.6103 75.2593 56.081 74.3562 56.8388L70.798 59.8245L83.3159 74.7428L81.292 76.4411ZM82.8591 62.3316L93.2723 66.3884L90.9219 68.3606L80.574 64.249L82.8591 62.3316Z" fill="black"/>
<path d="M115.904 42.1652L116.857 44.3063L108.137 48.1888L107.184 46.0476L115.904 42.1652Z" fill="black"/>
<path d="M142.822 45.0893L139.785 23.4834L152.741 21.6627L153.067 23.9836L142.728 25.4366L143.754 32.7371L153.122 31.4204L153.448 33.7414L144.08 35.058L145.438 44.7216L142.822 45.0893Z" fill="black"/>
<path d="M172.842 21.1818H175.484V35.6278C175.484 37.1193 175.133 38.451 174.429 39.6229C173.733 40.7876 172.75 41.7074 171.478 42.3821C170.207 43.0497 168.716 43.3835 167.004 43.3835C165.292 43.3835 163.801 43.0497 162.53 42.3821C161.258 41.7074 160.271 40.7876 159.568 39.6229C158.872 38.451 158.524 37.1193 158.524 35.6278V21.1818H161.166V35.4148C161.166 36.4801 161.4 37.4283 161.869 38.2592C162.338 39.0831 163.005 39.733 163.872 40.2088C164.745 40.6776 165.79 40.9119 167.004 40.9119C168.218 40.9119 169.263 40.6776 170.136 40.2088C171.01 39.733 171.677 39.0831 172.139 38.2592C172.608 37.4283 172.842 36.4801 172.842 35.4148V21.1818Z" fill="black"/>
<path d="M178.299 43.5205L181.335 21.9146L183.952 22.2823L181.241 41.5672L191.285 42.9787L190.959 45.2997L178.299 43.5205Z" fill="black"/>
<path d="M195.33 46.4116L201.344 25.4386L203.884 26.1669L198.516 44.8869L208.265 47.6824L207.619 49.9354L195.33 46.4116Z" fill="black"/>
<path d="M244.621 50.6037C245.084 49.6204 245.089 48.6349 244.634 47.6473C244.179 46.6596 243.391 45.8157 242.271 45.1157C241.452 44.6038 240.652 44.2885 239.873 44.1696C239.099 44.0545 238.395 44.1215 237.762 44.3708C237.135 44.6238 236.637 45.0454 236.268 45.6357C235.959 46.1296 235.812 46.6276 235.824 47.1298C235.847 47.6296 235.972 48.1137 236.198 48.5819C236.429 49.0442 236.702 49.4785 237.017 49.885C237.336 50.2855 237.639 50.6382 237.926 50.9431L239.489 52.6233C239.892 53.0508 240.319 53.5605 240.77 54.1522C241.227 54.7476 241.606 55.4074 241.907 56.1316C242.218 56.8536 242.365 57.6237 242.348 58.4421C242.331 59.2604 242.051 60.1032 241.509 60.9706C240.884 61.9704 240.058 62.7101 239.03 63.1898C238.007 63.6732 236.848 63.8404 235.55 63.6915C234.259 63.5463 232.903 63.0296 231.482 62.1414C230.156 61.3134 229.143 60.3826 228.44 59.349C227.744 58.3192 227.357 57.2487 227.281 56.1375C227.211 55.0301 227.456 53.9479 228.016 52.8908L230.329 54.3361C229.953 55.0724 229.826 55.7974 229.95 56.5111C230.083 57.2225 230.396 57.8872 230.889 58.5052C231.392 59.121 232.011 59.6585 232.746 60.1177C233.601 60.6521 234.456 60.9934 235.31 61.1417C236.167 61.2839 236.951 61.2292 237.661 60.9777C238.374 60.7202 238.942 60.2541 239.364 59.5795C239.747 58.9652 239.888 58.358 239.786 57.758C239.683 57.158 239.427 56.5625 239.018 55.9716C238.608 55.3806 238.134 54.7916 237.597 54.2044L235.727 52.1313C234.541 50.8124 233.767 49.504 233.406 48.2062C233.044 46.9083 233.253 45.636 234.032 44.3892C234.679 43.3532 235.524 42.6248 236.566 42.2039C237.618 41.7807 238.753 41.6526 239.972 41.8196C241.2 41.9843 242.405 42.4356 243.585 43.1732C244.778 43.9184 245.704 44.7946 246.365 45.8019C247.029 46.8031 247.402 47.8405 247.485 48.914C247.574 49.9913 247.342 51.0062 246.789 51.9586L244.621 50.6037Z" fill="black"/>
<path d="M251.921 51.7988L253.427 50.0034L265.963 60.5217L264.456 62.3172L259.2 57.9071L246.683 72.8254L244.659 71.1271L257.177 56.2088L251.921 51.7988Z" fill="black"/>
<path d="M254.123 79.5662L252.27 77.5077L273.845 68.8621L275.67 70.8889L264.816 91.4417L262.963 89.3833L272.249 72.2485L272.135 72.1218L254.123 79.5662ZM261.141 74.6234L268.612 82.9204L266.87 84.4887L259.4 76.1917L261.141 74.6234Z" fill="black"/>
<path d="M286.336 96.8734L284.858 94.683C285.401 94.1285 285.802 93.5285 286.06 92.883C286.323 92.2433 286.461 91.5847 286.475 90.907C286.499 90.2312 286.407 89.5609 286.198 88.8963C285.99 88.2316 285.683 87.599 285.278 86.9984C284.539 85.9032 283.593 85.0977 282.44 84.5819C281.291 84.0721 280.001 83.9185 278.57 84.1213C277.143 84.3299 275.646 84.9624 274.08 86.0189C272.514 87.0753 271.366 88.226 270.638 89.4709C269.914 90.7218 269.574 91.9754 269.616 93.232C269.662 94.4944 270.054 95.6732 270.793 96.7684C271.198 97.3689 271.67 97.8904 272.208 98.3326C272.746 98.7749 273.33 99.1135 273.96 99.3485C274.599 99.5853 275.265 99.7019 275.956 99.6982C276.657 99.6963 277.364 99.5497 278.075 99.2583L279.553 101.449C278.517 101.907 277.487 102.165 276.463 102.222C275.439 102.278 274.453 102.156 273.504 101.854C272.56 101.547 271.684 101.08 270.875 100.453C270.07 99.8305 269.36 99.0631 268.744 98.1505C267.704 96.6078 267.155 94.9817 267.099 93.2722C267.042 91.5627 267.476 89.8948 268.401 88.2686C269.326 86.6424 270.742 85.1859 272.65 83.8992C274.558 82.6124 276.439 81.8448 278.293 81.5964C280.147 81.348 281.856 81.5703 283.42 82.2631C284.984 82.9559 286.286 84.0736 287.327 85.6163C287.942 86.5289 288.388 87.475 288.663 88.4545C288.942 89.4399 289.044 90.4292 288.969 91.4224C288.899 92.4116 288.646 93.3703 288.21 94.2985C287.78 95.2227 287.155 96.081 286.336 96.8734Z" fill="black"/>
<path d="M274.206 106.091L293.817 96.5261L294.975 98.9007L285.246 103.646L285.358 103.875L299.383 107.94L300.896 111.042L288.033 107.123L281.286 120.607L279.885 117.734L285.676 106.47L281.723 105.364L275.365 108.465L274.206 106.091Z" fill="black"/>
<path d="M287.735 143.877L286.566 137.246L308.053 133.457L309.273 140.382C309.641 142.466 309.525 144.325 308.926 145.96C308.335 147.593 307.308 148.946 305.845 150.019C304.39 151.091 302.55 151.822 300.326 152.215C298.088 152.609 296.09 152.55 294.334 152.038C292.585 151.524 291.142 150.581 290.006 149.21C288.877 147.836 288.12 146.059 287.735 143.877ZM289.333 139.441L290.014 143.302C290.327 145.078 290.929 146.49 291.821 147.537C292.712 148.585 293.841 149.283 295.208 149.634C296.575 149.984 298.133 150.005 299.882 149.697C301.616 149.391 303.06 148.844 304.212 148.057C305.371 147.268 306.187 146.252 306.66 145.007C307.14 143.762 307.232 142.299 306.936 140.621L306.203 136.466L289.333 139.441Z" fill="black"/>
<path d="M289.563 156.108L311.368 155.347L311.827 168.506L309.485 168.588L309.117 158.069L301.75 158.326L302.093 168.164L299.751 168.246L299.407 158.408L291.997 158.667L292.37 169.356L290.028 169.438L289.563 156.108Z" fill="black"/>
<path d="M311.498 176.075L292.555 180.597L292.528 180.851L310.117 189.212L309.828 191.967L288.966 181.719L289.251 179.007L311.787 173.32L311.498 176.075Z" fill="black"/>
<path d="M287.713 190.54L308.883 195.818L305.698 208.594L303.424 208.027L305.97 197.814L298.817 196.031L296.436 205.582L294.161 205.015L296.543 195.464L289.348 193.67L286.761 204.048L284.487 203.481L287.713 190.54Z" fill="black"/>
<path d="M282.765 208.351L302.994 216.525L302.004 218.974L283.948 211.679L280.149 221.082L277.976 220.205L282.765 208.351Z" fill="black"/>
<path d="M277.576 242.986C275.583 241.836 274.069 240.482 273.033 238.924C271.997 237.366 271.447 235.733 271.384 234.024C271.322 232.314 271.755 230.654 272.686 229.042C273.616 227.431 274.837 226.225 276.349 225.425C277.861 224.625 279.55 224.284 281.417 224.402C283.284 224.521 285.214 225.155 287.207 226.306C289.2 227.456 290.714 228.81 291.75 230.368C292.786 231.926 293.336 233.559 293.399 235.269C293.462 236.978 293.028 238.638 292.097 240.25C291.167 241.861 289.946 243.067 288.434 243.867C286.923 244.668 285.233 245.008 283.366 244.89C281.499 244.772 279.569 244.137 277.576 242.986ZM278.855 240.772C280.491 241.717 282.03 242.24 283.471 242.343C284.909 242.451 286.186 242.208 287.3 241.613C288.411 241.024 289.296 240.158 289.957 239.014C290.617 237.87 290.927 236.667 290.885 235.404C290.839 234.148 290.412 232.921 289.602 231.724C288.789 230.532 287.565 229.465 285.928 228.52C284.292 227.575 282.755 227.049 281.317 226.94C279.876 226.838 278.599 227.081 277.488 227.67C276.374 228.265 275.487 229.134 274.826 230.278C274.166 231.422 273.858 232.622 273.904 233.879C273.946 235.141 274.373 236.368 275.186 237.559C275.996 238.757 277.219 239.828 278.855 240.772Z" fill="black"/>
<path d="M267.867 237.491L285.06 250.924L280.522 256.733C279.468 258.082 278.363 258.994 277.207 259.47C276.052 259.956 274.902 260.085 273.756 259.856C272.609 259.628 271.53 259.117 270.517 258.326C269.504 257.535 268.745 256.608 268.24 255.547C267.731 254.491 267.565 253.343 267.741 252.102C267.923 250.865 268.537 249.578 269.582 248.24L272.835 244.076L274.682 245.519L271.481 249.616C270.76 250.54 270.34 251.406 270.222 252.215C270.103 253.024 270.217 253.766 270.563 254.442C270.911 255.128 271.429 255.74 272.117 256.278C272.805 256.815 273.522 257.168 274.266 257.334C275.005 257.507 275.75 257.43 276.499 257.106C277.254 256.785 277.997 256.158 278.727 255.223L281.587 251.563L266.241 239.573L267.867 237.491Z" fill="black"/>
<path d="M256.631 251.347L271.787 267.042L262.315 276.189L260.687 274.503L268.259 267.191L263.137 261.888L256.056 268.726L254.428 267.04L261.509 260.202L256.359 254.868L248.664 262.298L247.036 260.612L256.631 251.347Z" fill="black"/>
<path d="M244.486 262.747L257.31 280.398L251.346 284.732C249.967 285.733 248.664 286.32 247.436 286.492C246.213 286.67 245.093 286.505 244.075 285.998C243.057 285.491 242.17 284.717 241.415 283.677C240.659 282.637 240.202 281.561 240.042 280.447C239.883 279.334 240.076 278.228 240.621 277.13C241.17 276.037 242.129 274.994 243.496 274L248.323 270.494L249.726 272.424L244.968 275.881C244.026 276.566 243.367 277.254 242.993 277.948C242.613 278.645 242.478 279.341 242.587 280.034C242.694 280.738 243.004 281.443 243.518 282.149C244.031 282.856 244.612 283.378 245.26 283.714C245.909 284.051 246.627 284.152 247.417 284.018C248.21 283.889 249.083 283.478 250.037 282.785L253.795 280.055L242.348 264.3L244.486 262.747ZM241.938 276.713L231.833 271.94L234.315 270.136L244.351 274.959L241.938 276.713Z" fill="black"/>
<path d="M207.567 294.525L206.765 292.323L215.735 289.058L216.537 291.26L207.567 294.525Z" fill="black"/>
</svg>
