<svg width="333" height="334" viewBox="0 0 333 334" fill="none" xmlns="http://www.w3.org/2000/svg">
<circle cx="166" cy="168" r="161" fill="#F5F5F5"/>
<path d="M147.401 302.72L151.746 303.024C151.786 303.591 151.913 304.102 152.127 304.555C152.341 305.016 152.628 305.415 152.99 305.752C153.352 306.09 153.778 306.359 154.269 306.559C154.754 306.759 155.287 306.88 155.869 306.92C156.92 306.994 157.854 306.797 158.671 306.329C159.487 305.868 160.145 305.156 160.644 304.194C161.143 303.239 161.442 302.057 161.54 300.649C161.641 299.2 161.512 297.969 161.151 296.953C160.783 295.938 160.227 295.151 159.482 294.594C158.737 294.037 157.851 293.722 156.827 293.651C156.251 293.611 155.714 293.649 155.214 293.767C154.707 293.885 154.252 294.075 153.848 294.34C153.444 294.61 153.101 294.948 152.82 295.354C152.533 295.759 152.32 296.23 152.183 296.765L147.84 296.441C148.018 295.517 148.362 294.637 148.872 293.802C149.375 292.974 150.027 292.245 150.829 291.617C151.623 290.994 152.553 290.521 153.619 290.197C154.678 289.879 155.859 289.766 157.162 289.857C158.973 289.983 160.565 290.507 161.936 291.426C163.3 292.346 164.341 293.611 165.059 295.223C165.771 296.835 166.049 298.744 165.895 300.953C165.74 303.168 165.191 305.024 164.249 306.52C163.308 308.015 162.094 309.12 160.609 309.833C159.123 310.553 157.488 310.851 155.702 310.726C154.525 310.644 153.446 310.402 152.464 310.001C151.475 309.6 150.613 309.055 149.877 308.365C149.141 307.682 148.56 306.868 148.134 305.921C147.702 304.974 147.458 303.907 147.401 302.72Z" fill="#3C3C3C"/>
<path d="M148.236 289.419L144.002 309.338L139.79 308.443L141.537 300.225L132.988 298.407L131.241 306.626L127.04 305.733L131.274 285.814L135.475 286.707L133.726 294.935L142.275 296.752L144.024 288.524L148.236 289.419Z" fill="#3C3C3C"/>
<path d="M128.064 284.542L132.4 286.12L118.829 302.852L113.615 300.954L113.984 279.417L118.319 280.995L117.739 297.503L117.888 297.557L128.064 284.542ZM125.598 292.163L115.357 288.435L116.507 285.277L126.747 289.004L125.598 292.163Z" fill="#3C3C3C"/>
<path d="M114.61 279.463L105.049 297.443L97.9557 293.671C96.5978 292.949 95.5681 292.09 94.8665 291.094C94.156 290.1 93.784 289.028 93.7506 287.876C93.7082 286.728 94.0029 285.559 94.6346 284.371C95.2695 283.177 96.0731 282.287 97.0457 281.7C98.0151 281.12 99.1099 280.861 100.33 280.924C101.544 280.984 102.842 281.381 104.223 282.116L108.973 284.641L107.349 287.697L103.213 285.498C102.488 285.112 101.832 284.891 101.246 284.835C100.66 284.779 100.145 284.887 99.699 285.161C99.2474 285.431 98.8645 285.862 98.5502 286.453C98.2328 287.05 98.0851 287.617 98.1072 288.155C98.1235 288.689 98.3185 289.19 98.6923 289.659C99.0571 290.131 99.6053 290.561 100.337 290.95L102.9 292.313L110.808 277.441L114.61 279.463ZM100.549 282.482L100.431 271.924L104.627 274.155L104.649 284.662L100.549 282.482Z" fill="#3C3C3C"/>
<path d="M90.3009 285.349L88.2145 288.221L74.6841 278.39L76.7706 275.518L81.8143 279.183L91.6973 265.58L95.1402 268.082L85.2572 281.684L90.3009 285.349Z" fill="#3C3C3C"/>
<path d="M85.094 260.465L70.9482 275.113L61.0777 265.581L63.5435 263.028L70.317 269.569L73.6877 266.078L67.422 260.028L69.8879 257.474L76.1535 263.525L79.5311 260.027L72.729 253.459L75.1949 250.905L85.094 260.465Z" fill="#3C3C3C"/>
<path d="M73.2182 248.758L57.1714 261.295L52.2252 254.964C51.2783 253.752 50.6871 252.548 50.4513 251.353C50.2063 250.156 50.3026 249.025 50.7404 247.96C51.1689 246.893 51.9133 245.946 52.9737 245.117C54.0393 244.285 55.1356 243.798 56.2626 243.658C57.3844 243.522 58.4898 243.731 59.5788 244.285C60.6637 244.834 61.6877 245.724 62.6508 246.957L65.9626 251.196L63.2359 253.326L60.3526 249.636C59.8466 248.988 59.3374 248.52 58.8252 248.23C58.3129 247.94 57.7976 247.83 57.2791 247.898C56.7566 247.962 56.2315 248.2 55.704 248.612C55.1712 249.028 54.8056 249.486 54.6073 249.986C54.4049 250.481 54.379 251.018 54.5297 251.599C54.6711 252.178 54.9968 252.794 55.507 253.447L57.2945 255.735L70.5675 245.365L73.2182 248.758ZM59.1451 245.797L63.3318 236.104L66.2579 239.849L62.004 249.456L59.1451 245.797Z" fill="#3C3C3C"/>
<path d="M62.4009 234.494L44.7655 244.676L37.9047 232.793L40.9789 231.018L45.687 239.173L49.8891 236.746L45.534 229.203L48.6082 227.428L52.9633 234.972L57.1741 232.54L52.4461 224.351L55.5203 222.576L62.4009 234.494Z" fill="#3C3C3C"/>
<path d="M51.8818 214.2L54.586 220.893L35.7051 228.521L32.9786 221.773C32.2113 219.873 31.9287 218.086 32.131 216.41C32.327 214.736 32.9798 213.246 34.0893 211.94C35.1963 210.628 36.7301 209.576 38.6907 208.784C40.6574 207.989 42.4979 207.678 44.2119 207.85C45.9235 208.017 47.4366 208.639 48.7513 209.716C50.0635 210.788 51.107 212.282 51.8818 214.2ZM49.5528 218.283L48.5285 215.747C48.0517 214.567 47.4417 213.659 46.6985 213.023C45.9466 212.383 45.0462 212.039 43.9973 211.991C42.9398 211.939 41.7072 212.198 40.2998 212.766C38.9046 213.33 37.8477 213.996 37.129 214.766C36.4079 215.529 36.001 216.398 35.9084 217.372C35.8157 218.346 36.0078 219.423 36.4846 220.603L37.5126 223.147L49.5528 218.283Z" fill="#3C3C3C"/>
<path d="M43.8136 186.442L23.5615 188.57L22.1272 174.924L25.6575 174.553L26.6417 183.917L31.4674 183.41L30.557 174.748L34.0872 174.377L34.9977 183.039L39.8333 182.531L38.8449 173.127L42.3751 172.756L43.8136 186.442Z" fill="#3C3C3C"/>
<path d="M22.4698 152.529L42.821 153.24L42.6912 156.957L29.5731 165.363L29.5679 165.512L42.3768 165.96L42.2266 170.262L21.8753 169.552L22.0072 165.776L35.113 157.438L35.1192 157.259L22.3202 156.812L22.4698 152.529Z" fill="#3C3C3C"/>
<path d="M31.654 137.642C31.1533 137.695 30.6983 137.813 30.289 137.997C29.8731 138.179 29.5063 138.428 29.1884 138.742C28.8651 139.048 28.5946 139.418 28.3769 139.851C28.1604 140.277 28.0038 140.764 27.9071 141.313C27.7264 142.338 27.8222 143.283 28.1944 144.15C28.5677 145.01 29.2028 145.741 30.0995 146.344C30.9897 146.945 32.1333 147.369 33.5303 147.615C34.9273 147.861 36.1528 147.859 37.2069 147.607C38.2609 147.355 39.1142 146.886 39.7669 146.201C40.4131 145.513 40.8294 144.641 41.0159 143.584C41.1851 142.624 41.1598 141.775 40.9401 141.036C40.715 140.29 40.3207 139.682 39.7573 139.212C39.1951 138.736 38.4864 138.423 37.6312 138.272L37.9104 137.432L36.9988 142.603L33.8066 142.04L35.2863 133.648L37.8126 134.093C39.5752 134.404 41.0241 135.043 42.1594 136.011C43.288 136.977 44.08 138.174 44.5352 139.6C44.984 141.025 45.0598 142.58 44.7628 144.265C44.4313 146.145 43.7256 147.723 42.6456 149C41.559 150.276 40.1785 151.177 38.504 151.703C36.8241 152.221 34.9266 152.294 32.8115 151.921C31.186 151.634 29.7782 151.143 28.5881 150.449C27.3926 149.747 26.4264 148.89 25.6893 147.878C24.9523 146.866 24.4522 145.752 24.189 144.534C23.9258 143.316 23.911 142.045 24.1447 140.72C24.345 139.584 24.6979 138.556 25.2035 137.635C25.7026 136.714 26.3191 135.927 27.0533 135.276C27.7885 134.618 28.6133 134.12 29.5275 133.784C30.4352 133.446 31.3973 133.295 32.4138 133.333L31.654 137.642Z" fill="#3C3C3C"/>
<path d="M29.7778 120.175L49.1448 126.468L47.8144 130.563L28.4474 124.27L29.7778 120.175Z" fill="#3C3C3C"/>
<path d="M40.6727 95.3218L58.9754 104.249L57.3452 107.591L41.9419 109.935L41.8765 110.069L53.3961 115.688L51.5088 119.557L33.2061 110.631L34.8624 107.235L50.2263 104.949L50.3047 104.788L38.794 99.1736L40.6727 95.3218Z" fill="#3C3C3C"/>
<path d="M59.7719 103.202L42.8897 91.8152L50.5627 80.4395L53.5056 82.4245L48.2401 90.2309L52.2628 92.9442L57.1335 85.7231L60.0764 87.7081L55.2057 94.9292L59.2366 97.6481L64.5243 89.8088L67.4672 91.7938L59.7719 103.202Z" fill="#3C3C3C"/>
<path d="M69.6505 89.017L54.5173 75.3911L63.6989 65.194L66.3368 67.5692L60.0362 74.5668L63.6421 77.8136L69.4704 71.3406L72.1083 73.7158L66.2801 80.1888L69.8934 83.4423L76.2207 76.4151L78.8586 78.7903L69.6505 89.017Z" fill="#3C3C3C"/>
<path d="M80.9358 76.7399L67.8463 61.1405L74.0008 55.9763C75.1789 54.9877 76.3611 54.3548 77.5476 54.0775C78.7348 53.7908 79.8685 53.8477 80.9486 54.248C82.0295 54.639 83.0025 55.3499 83.8674 56.3807C84.7366 57.4166 85.261 58.4953 85.4405 59.6167C85.6157 60.733 85.4455 61.845 84.9298 62.9527C84.4193 64.0561 83.5648 65.1106 82.3664 66.1161L78.2456 69.5739L76.0214 66.9232L79.609 63.9128C80.2387 63.3845 80.6893 62.8593 80.9608 62.3373C81.2323 61.8152 81.3247 61.2963 81.2381 60.7806C81.1566 60.2606 80.9006 59.7441 80.4703 59.2313C80.0357 58.7133 79.5651 58.364 79.0587 58.1832C78.5573 57.9982 78.0192 57.9911 77.4443 58.162C76.8703 58.3235 76.2659 58.6705 75.6311 59.2031L73.407 61.0694L84.2339 73.9725L80.9358 76.7399ZM83.4034 62.5721L93.2371 66.4179L89.5962 69.473L79.8463 65.5569L83.4034 62.5721Z" fill="#3C3C3C"/>
<path d="M115.979 42.6606L117.346 45.7308L108.862 49.5081L107.495 46.4379L115.979 42.6606Z" fill="#3C3C3C"/>
<path d="M142.567 45.1251L139.733 24.9597L153.084 23.0832L153.578 26.5984L144.49 27.8757L145.165 32.6807L153.367 31.528L153.861 35.0432L145.659 36.1959L146.83 44.526L142.567 45.1251Z" fill="#3C3C3C"/>
<path d="M171.135 22.6364L175.441 22.6364V35.8608C175.441 37.3456 175.086 38.6449 174.377 39.7585C173.674 40.8722 172.69 41.7405 171.423 42.3636C170.157 42.9801 168.682 43.2884 166.999 43.2884C165.308 43.2884 163.83 42.9801 162.564 42.3636C161.298 41.7405 160.314 40.8722 159.611 39.7585C158.908 38.6449 158.557 37.3456 158.557 35.8608V22.6364H162.862V35.4929C162.862 36.2685 163.031 36.9579 163.369 37.5611C163.714 38.1643 164.198 38.6383 164.821 38.983C165.444 39.3277 166.17 39.5 166.999 39.5C167.834 39.5 168.56 39.3277 169.176 38.983C169.799 38.6383 170.28 38.1643 170.618 37.5611C170.963 36.9579 171.135 36.2685 171.135 35.4929V22.6364Z" fill="#3C3C3C"/>
<path d="M177.925 43.4678L180.759 23.3024L185.022 23.9016L182.682 40.5519L191.327 41.7669L190.833 45.282L177.925 43.4678Z" fill="#3C3C3C"/>
<path d="M194.967 46.3074L200.58 26.7326L204.718 27.9194L200.084 44.0819L208.476 46.4883L207.497 49.9005L194.967 46.3074Z" fill="#3C3C3C"/>
<path d="M242.479 51.4545C242.836 50.7321 242.877 50.0228 242.601 49.3265C242.325 48.6302 241.748 48.0081 240.871 47.4601C240.275 47.0877 239.719 46.8577 239.204 46.7699C238.691 46.6765 238.234 46.7074 237.832 46.8628C237.436 47.0216 237.122 47.2865 236.89 47.6575C236.686 47.9597 236.582 48.2699 236.578 48.5882C236.58 48.91 236.655 49.2343 236.803 49.561C236.954 49.8821 237.157 50.2081 237.411 50.5391C237.669 50.8644 237.96 51.1868 238.284 51.5065L239.604 52.8471C240.251 53.4864 240.802 54.1433 241.256 54.8178C241.71 55.4923 242.04 56.1788 242.244 56.8772C242.449 57.5756 242.504 58.2821 242.409 58.9967C242.32 59.7149 242.053 60.4354 241.609 61.1585C240.943 62.2119 240.101 62.9596 239.082 63.4016C238.072 63.8416 236.934 63.9625 235.666 63.7645C234.407 63.5644 233.076 63.0252 231.67 62.147C230.276 61.2759 229.195 60.3035 228.428 59.2299C227.666 58.1599 227.257 57.0251 227.202 55.8257C227.155 54.6242 227.506 53.3935 228.254 52.1335L231.787 54.3413C231.465 54.9449 231.329 55.532 231.379 56.1025C231.438 56.6709 231.653 57.2081 232.025 57.714C232.406 58.2177 232.911 58.6663 233.541 59.0598C234.159 59.4462 234.752 59.6917 235.32 59.7963C235.893 59.9045 236.406 59.8774 236.86 59.715C237.313 59.5527 237.669 59.2635 237.929 58.8475C238.172 58.4596 238.26 58.0616 238.195 57.6533C238.135 57.2486 237.944 56.8165 237.621 56.357C237.304 55.901 236.879 55.4004 236.344 54.8552L234.758 53.208C233.524 51.944 232.72 50.6719 232.348 49.3918C231.975 48.1116 232.19 46.8352 232.993 45.5626C233.641 44.5135 234.49 43.7739 235.541 43.3437C236.597 42.9171 237.756 42.7937 239.02 42.9735C240.283 43.1532 241.544 43.6365 242.804 44.4234C244.085 45.2243 245.067 46.1426 245.749 47.1782C246.436 48.2174 246.803 49.2945 246.848 50.4096C246.894 51.5247 246.604 52.6019 245.978 53.6412L242.479 51.4545Z" fill="#3C3C3C"/>
<path d="M250.071 53.7198L252.353 51.0006L265.165 61.7509L262.883 64.4701L258.107 60.4627L247.299 73.3429L244.039 70.6074L254.847 57.7272L250.071 53.7198Z" fill="#3C3C3C"/>
<path d="M255.065 80.6117L251.978 77.1831L271.815 68.7814L275.527 72.9046L265.091 91.7473L262.004 88.3187L270.266 74.0158L270.16 73.8976L255.065 80.6117ZM260.82 75.0416L268.112 83.1401L265.615 85.389L258.323 77.2904L260.82 75.0416Z" fill="#3C3C3C"/>
<path d="M284.83 97.7978L282.394 94.1872C282.817 93.8062 283.141 93.3917 283.367 92.9437C283.598 92.492 283.735 92.0197 283.778 91.5268C283.821 91.0338 283.771 90.5322 283.627 90.0218C283.486 89.517 283.252 89.0228 282.926 88.5392C282.337 87.6654 281.606 87.0507 280.735 86.695C279.869 86.3357 278.903 86.2554 277.838 86.4542C276.778 86.6493 275.663 87.1417 274.492 87.9312C273.289 88.743 272.398 89.6036 271.82 90.5132C271.246 91.4282 270.969 92.3508 270.989 93.281C271.008 94.2111 271.306 95.1021 271.88 95.9539C272.203 96.432 272.564 96.8318 272.965 97.1532C273.369 97.4801 273.8 97.7214 274.257 97.877C274.719 98.029 275.196 98.0907 275.689 98.0623C276.185 98.0394 276.687 97.9172 277.193 97.6957L279.612 101.317C278.774 101.747 277.869 102.017 276.897 102.129C275.934 102.243 274.958 102.177 273.97 101.933C272.99 101.69 272.045 101.248 271.133 100.608C270.231 99.969 269.414 99.1084 268.684 98.0258C267.668 96.52 267.101 94.9438 266.982 93.2971C266.866 91.6559 267.223 90.0563 268.051 88.4983C268.882 86.9458 270.216 85.5505 272.052 84.3124C273.893 83.0706 275.692 82.3604 277.451 82.1818C279.209 82.0031 280.827 82.2793 282.303 83.0104C283.786 83.7378 285.027 84.8434 286.028 86.3272C286.688 87.3054 287.162 88.3048 287.451 89.3255C287.743 90.3516 287.844 91.3669 287.754 92.3712C287.669 93.3718 287.385 94.3312 286.901 95.2494C286.42 96.1731 285.73 97.0226 284.83 97.7978Z" fill="#3C3C3C"/>
<path d="M273.882 105.426L292.185 96.4992L294.072 100.369L286.002 104.305L286.12 104.546L297.403 107.197L299.665 111.835L288.157 109.04L281.401 120.842L279.143 116.213L284.223 107.529L280.971 106.759L275.77 109.296L273.882 105.426Z" fill="#3C3C3C"/>
<path d="M287.771 144.083L286.518 136.974L306.572 133.438L307.836 140.605C308.192 142.623 308.096 144.43 307.55 146.027C307.01 147.623 306.062 148.945 304.705 149.992C303.35 151.045 301.631 151.756 299.548 152.123C297.459 152.491 295.594 152.413 293.954 151.888C292.314 151.369 290.963 150.446 289.901 149.119C288.84 147.798 288.13 146.119 287.771 144.083ZM290.898 140.573L291.373 143.266C291.594 144.519 292.002 145.534 292.597 146.311C293.199 147.094 294.008 147.617 295.024 147.882C296.048 148.153 297.307 148.156 298.802 147.893C300.284 147.631 301.456 147.199 302.319 146.596C303.183 145.999 303.762 145.234 304.055 144.301C304.348 143.368 304.384 142.274 304.163 141.021L303.687 138.318L290.898 140.573Z" fill="#3C3C3C"/>
<path d="M289.546 155.629L309.897 154.918L310.376 168.631L306.828 168.755L306.5 159.345L301.651 159.514L301.955 168.219L298.407 168.343L298.103 159.638L293.244 159.808L293.574 169.258L290.026 169.382L289.546 155.629Z" fill="#3C3C3C"/>
<path d="M309.887 177.49L293.985 180.768L293.966 180.956L308.837 187.478L308.338 192.224L288.82 183.114L289.4 177.596L310.387 172.733L309.887 177.49Z" fill="#3C3C3C"/>
<path d="M287.829 190.074L307.588 195.001L304.269 208.315L300.824 207.456L303.102 198.319L298.394 197.145L296.287 205.597L292.843 204.738L294.95 196.287L290.232 195.11L287.944 204.286L284.5 203.427L287.829 190.074Z" fill="#3C3C3C"/>
<path d="M282.906 208.001L301.787 215.629L300.174 219.621L284.585 213.322L281.314 221.417L278.023 220.087L282.906 208.001Z" fill="#3C3C3C"/>
<path d="M276.993 242.542C275.07 241.432 273.644 240.122 272.716 238.614C271.785 237.112 271.324 235.53 271.335 233.867C271.348 232.214 271.804 230.609 272.702 229.054C273.607 227.487 274.775 226.286 276.206 225.451C277.637 224.616 279.236 224.226 281.003 224.282C282.769 224.338 284.611 224.919 286.529 226.026C288.452 227.136 289.879 228.442 290.811 229.945C291.742 231.447 292.201 233.025 292.188 234.678C292.181 236.335 291.725 237.947 290.82 239.514C289.922 241.07 288.757 242.265 287.326 243.1C285.897 243.943 284.3 244.338 282.533 244.282C280.763 244.232 278.916 243.652 276.993 242.542ZM279.176 238.762C280.421 239.481 281.58 239.901 282.65 240.021C283.718 240.148 284.667 240.003 285.496 239.586C286.326 239.17 287.001 238.511 287.522 237.61C288.042 236.709 288.275 235.794 288.221 234.868C288.167 233.941 287.82 233.044 287.18 232.177C286.536 231.316 285.592 230.525 284.346 229.806C283.1 229.087 281.944 228.664 280.876 228.538C279.806 228.417 278.855 228.565 278.025 228.981C277.196 229.398 276.52 230.057 276 230.958C275.48 231.859 275.247 232.773 275.301 233.7C275.355 234.627 275.704 235.521 276.347 236.382C276.987 237.249 277.93 238.042 279.176 238.762Z" fill="#3C3C3C"/>
<path d="M268.123 237.164L284.17 249.701L279.223 256.032C278.273 257.249 277.23 258.105 276.096 258.598C274.967 259.096 273.817 259.249 272.646 259.057C271.476 258.875 270.358 258.368 269.292 257.535C268.227 256.702 267.466 255.738 267.01 254.642C266.555 253.545 266.44 252.384 266.668 251.156C266.891 249.934 267.484 248.706 268.447 247.474L271.599 243.439L274.318 245.563L271.594 249.049C271.084 249.702 270.776 250.328 270.67 250.927C270.565 251.535 270.632 252.1 270.871 252.623C271.111 253.156 271.495 253.628 272.023 254.04C272.556 254.457 273.104 254.713 273.668 254.809C274.234 254.914 274.794 254.838 275.348 254.581C275.907 254.329 276.444 253.873 276.958 253.215L278.745 250.927L265.472 240.557L268.123 237.164Z" fill="#3C3C3C"/>
<path d="M256.976 251.014L271.122 265.662L261.251 275.194L258.785 272.641L265.559 266.1L262.188 262.609L255.923 268.66L253.457 266.106L259.722 260.056L256.345 256.558L249.543 263.127L247.077 260.573L256.976 251.014Z" fill="#3C3C3C"/>
<path d="M244.862 262.474L256.831 278.948L250.331 283.671C249.087 284.575 247.864 285.123 246.661 285.317C245.456 285.521 244.33 285.385 243.28 284.91C242.229 284.445 241.308 283.668 240.517 282.579C239.722 281.485 239.274 280.372 239.174 279.241C239.077 278.115 239.324 277.018 239.916 275.949C240.502 274.884 241.428 273.891 242.694 272.972L247.045 269.81L249.079 272.609L245.291 275.362C244.626 275.845 244.139 276.338 243.832 276.84C243.525 277.341 243.396 277.853 243.447 278.373C243.492 278.898 243.711 279.431 244.105 279.972C244.502 280.519 244.947 280.901 245.44 281.116C245.927 281.336 246.463 281.38 247.049 281.25C247.633 281.129 248.26 280.825 248.93 280.338L251.279 278.631L241.379 265.004L244.862 262.474ZM241.412 276.435L231.87 271.913L235.715 269.119L245.168 273.706L241.412 276.435Z" fill="#3C3C3C"/>
<path d="M196.578 297.168L195.429 294.01L204.156 290.833L205.305 293.991L196.578 297.168Z" fill="#3C3C3C"/>
</svg>
