<?xml version="1.0" standalone="no"?>
<!DOCTYPE svg PUBLIC "-//W3C//DTD SVG 20010904//EN"
 "http://www.w3.org/TR/2001/REC-SVG-20010904/DTD/svg10.dtd">
<svg version="1.0" xmlns="http://www.w3.org/2000/svg"
 width="512.000000pt" height="512.000000pt" viewBox="0 0 512.000000 512.000000"
 preserveAspectRatio="xMidYMid meet">

<g transform="translate(0.000000,512.000000) scale(0.100000,-0.100000)"
fill="#149031" stroke="none">
<path d="M222 4341 c-61 -21 -114 -61 -159 -120 -67 -86 -64 -15 -61 -1412 l3
-1264 23 -50 c29 -63 92 -129 157 -163 l50 -27 658 -3 c361 -1 657 -6 657 -11
0 -8 -96 -279 -122 -343 l-10 -28 -143 0 c-129 0 -145 -2 -169 -21 -37 -29
-37 -89 0 -118 27 -21 32 -21 886 -21 531 0 866 4 877 10 30 15 46 65 32 99
-19 43 -48 51 -200 51 l-138 0 -63 178 c-35 97 -65 183 -68 190 -3 9 49 12
242 12 l246 0 0 -32 c0 -26 17 -48 111 -144 61 -62 124 -118 140 -125 26 -10
38 -7 129 36 l100 48 62 -30 c35 -17 86 -38 115 -47 l52 -17 31 -95 c46 -138
40 -134 242 -134 165 0 169 1 193 24 15 15 35 59 51 114 27 89 27 90 68 102
23 7 76 28 119 48 l79 36 95 -48 c65 -32 102 -45 116 -40 28 8 246 222 258
253 8 20 1 42 -37 122 l-47 98 30 68 c17 38 37 86 44 108 7 22 18 45 23 51 6
7 49 24 96 39 130 41 130 41 130 240 0 202 0 202 -135 244 l-90 28 -18 49
c-10 27 -32 79 -49 117 l-31 68 47 98 c46 95 47 100 33 132 -20 46 -215 235
-251 245 -23 6 -48 -2 -123 -40 l-95 -47 -51 25 c-29 14 -81 36 -116 49 l-64
22 -31 92 c-38 113 -54 131 -115 135 l-46 3 -5 465 -5 465 -27 50 c-34 65
-100 128 -163 157 l-50 23 -1730 2 c-1655 2 -1732 2 -1783 -16z m3508 -161
c21 -11 49 -34 62 -52 l23 -33 3 -452 3 -453 -45 0 c-62 0 -79 -20 -115 -131
l-32 -96 -42 -13 c-23 -6 -76 -28 -118 -47 l-76 -34 -87 45 c-49 25 -100 46
-114 46 -39 0 -272 -235 -272 -274 0 -15 20 -67 45 -115 l45 -88 -34 -74 c-19
-41 -40 -93 -46 -116 l-13 -42 -96 -32 c-103 -33 -131 -55 -131 -100 l0 -29
-1265 0 -1265 0 0 988 0 989 23 43 c16 30 37 51 67 67 l43 23 1699 0 c1673 0
1699 0 1738 -20z m279 -1222 c39 -123 40 -123 136 -153 47 -14 120 -44 162
-65 42 -22 87 -40 100 -40 13 0 60 18 105 41 l81 41 58 -58 57 -57 -46 -93
-46 -94 46 -92 c25 -51 55 -123 67 -161 31 -102 31 -102 136 -137 l95 -32 0
-82 0 -82 -90 -29 c-50 -16 -96 -36 -104 -44 -7 -9 -23 -50 -36 -91 -12 -41
-42 -114 -67 -162 -50 -99 -50 -93 8 -209 l38 -76 -59 -58 -58 -57 -74 40
c-109 60 -107 60 -206 9 -48 -25 -121 -55 -162 -67 -41 -13 -82 -29 -91 -36
-8 -8 -28 -54 -44 -104 l-29 -90 -82 0 -82 0 -27 83 c-15 45 -36 91 -47 103
-10 11 -47 29 -81 38 -34 10 -109 40 -165 68 l-104 50 -93 -45 -93 -45 -57 58
-57 57 41 81 c23 45 41 93 41 106 0 14 -16 55 -36 91 -20 37 -49 104 -64 151
-15 46 -35 93 -45 104 -10 11 -55 32 -101 46 l-84 27 0 83 0 82 83 27 c45 15
90 34 100 43 9 8 26 45 37 81 11 37 40 108 65 159 25 52 45 102 45 113 0 11
-18 56 -41 101 l-41 81 60 60 60 60 76 -42 c41 -22 88 -41 103 -41 16 0 60 16
98 37 38 20 107 49 154 64 52 16 92 36 103 49 10 12 28 54 39 94 12 39 24 74
26 79 2 4 41 7 87 7 l82 0 23 -72z m-1319 -1091 c0 -35 6 -71 13 -80 6 -9 57
-32 111 -50 l100 -33 16 -50 c10 -27 31 -80 49 -118 17 -38 31 -70 31 -72 0
-3 -618 -3 -1372 -2 l-1373 3 -34 24 c-60 43 -71 84 -71 274 l0 167 1265 0
1265 0 0 -63z m-372 -734 c32 -93 62 -178 66 -190 l7 -23 -401 0 c-379 0 -402
1 -395 18 4 9 32 87 62 172 30 85 59 163 64 173 9 15 32 17 273 17 l264 0 60
-167z"/>
<path d="M2088 3809 c-10 -5 -22 -18 -27 -28 -16 -29 -281 -1196 -281 -1235 0
-25 7 -40 26 -55 34 -27 67 -27 98 2 23 20 39 82 166 637 123 535 139 618 129
643 -18 44 -70 61 -111 36z"/>
<path d="M1216 3401 c-186 -104 -346 -196 -354 -205 -23 -23 -21 -85 4 -105
35 -28 691 -391 707 -391 31 0 66 23 78 51 25 62 12 73 -286 240 -151 84 -273
155 -270 157 2 2 122 70 266 150 155 87 270 158 282 174 34 46 -3 118 -61 118
-17 0 -154 -71 -366 -189z"/>
<path d="M2352 3567 c-27 -29 -30 -87 -4 -109 9 -9 132 -80 272 -158 140 -78
259 -146 263 -150 5 -4 -103 -69 -240 -145 -310 -172 -313 -175 -313 -225 0
-30 6 -43 26 -59 15 -12 36 -21 48 -21 28 0 685 365 714 397 12 13 22 35 22
48 0 13 -10 35 -22 49 -34 37 -683 396 -717 396 -16 0 -37 -10 -49 -23z"/>
<path d="M3781 2454 c-262 -70 -423 -341 -356 -599 64 -243 310 -407 552 -366
218 37 382 205 414 423 13 92 -4 198 -48 287 -33 70 -141 180 -210 215 -106
53 -244 69 -352 40z m261 -176 c173 -80 242 -279 157 -455 -11 -23 -45 -65
-75 -93 -162 -147 -409 -103 -515 92 -32 59 -34 69 -34 153 0 70 5 100 21 136
40 85 119 156 209 186 61 20 170 11 237 -19z"/>
</g>
</svg>
